<?xml version="1.0" encoding="UTF-8"?><svg xmlns="http://www.w3.org/2000/svg" xmlns:xlink="http://www.w3.org/1999/xlink" version="1.1" id="Layer_1" x="0px" y="0px" viewBox="0 0 48 48" xml:space="preserve"><circle cx="24" cy="24" r="19.95" fill="#FFF"/><path d="M7.001 24c0 6.732 3.91 12.544 9.582 15.3L8.472 17.081A16.928 16.928 0 0 0 7.001 24zm28.478-.856c0-2.101-1.129-3.559-1.774-4.688-.864-1.412-1.674-2.589-1.674-3.987 0-1.557 1.563-3.017 3.231-3.017.075 0 .143.006.219.008A16.901 16.901 0 0 0 24.001 7c-5.726 0-10.788 2.833-13.868 7.171.242.079.326.041.649.041 1.773 0 4.53-.212 4.53-.212.914-.061 1.025 1.288.105 1.398 0 0-.918.112-1.942.161l6.302 18.889 3.719-11.157-2.766-7.701a27.29 27.29 0 0 1-1.784-.161c-.916-.059-.81-1.461.104-1.398 0 0 2.813.212 4.481.212 1.78 0 4.531-.212 4.531-.212.915-.061 1.025 1.288.11 1.398 0 0-.924.112-1.947.161l6.259 18.711 1.699-5.659c.866-2.21 1.296-4.037 1.296-5.498zm-11.181 2.339l-5.1 14.824c1.526.453 3.135.693 4.803.693 1.977 0 3.877-.344 5.648-.964-.042-.075-.09-.152-.125-.234l-5.226-14.319zm14.623-9.645c.075.542.115 1.125.115 1.748 0 1.73-.325 3.667-1.295 6.096L32.551 38.7C37.605 35.754 41 30.271 41 24c0-2.955-.755-5.733-2.079-8.162z" fill="#01579B"/><path d="M3 24c0 11.575 9.418 21 20.999 21C35.582 45 45 35.575 45 24S35.582 3 24 3 3 12.425 3 24zm1.995 0c0-10.475 8.523-18.999 19.004-18.999 10.482 0 19.006 8.524 19.006 18.999S34.481 43.001 24 43.001C13.52 43.001 4.995 34.475 4.995 24z" fill="#01579B"/><metadata><rdf:RDF xmlns:rdf="http://www.w3.org/1999/02/22-rdf-syntax-ns#" xmlns:rdfs="http://www.w3.org/2000/01/rdf-schema#" xmlns:dc="http://purl.org/dc/elements/1.1/"><rdf:Description about="https://iconscout.com/legal#licenses" dc:title="wordpress" dc:description="wordpress" dc:publisher="Iconscout" dc:date="2017-12-15" dc:format="image/svg+xml" dc:language="en"><dc:creator><rdf:Bag><rdf:li>Icons8</rdf:li></rdf:Bag></dc:creator></rdf:Description></rdf:RDF></metadata></svg>